<?xml version="1.0" encoding="UTF-8" ?>
<!DOCTYPE svg PUBLIC "-//W3C//DTD SVG 1.1//EN" "http://www.w3.org/Graphics/SVG/1.1/DTD/svg11.dtd">
<svg width="512pt" height="512pt" viewBox="0 0 512 512" version="1.1" xmlns="http://www.w3.org/2000/svg">
<g id="#ffffffff">

</g>
<g id="#010101ff">
<path fill="white" opacity="1.00" d=" M 341.37 27.50 C 343.50 26.84 345.80 26.75 348.00 27.04 C 367.48 32.92 386.07 41.73 403.05 52.93 C 412.02 59.18 420.60 65.98 428.71 73.29 C 433.32 78.37 438.78 82.67 442.88 88.21 C 462.03 109.51 475.94 135.25 484.53 162.52 C 485.19 164.46 485.26 166.62 484.51 168.55 C 482.40 172.21 477.90 172.94 474.45 174.82 C 473.99 174.91 473.07 175.10 472.61 175.20 C 465.54 178.03 457.96 179.42 450.73 181.83 C 437.14 185.88 423.79 190.66 410.13 194.44 C 370.22 206.84 330.31 219.25 290.39 231.61 C 285.51 233.42 279.83 229.19 279.98 224.04 C 280.23 220.95 281.52 218.07 282.37 215.12 C 296.45 169.78 310.52 124.45 324.60 79.11 C 329.04 63.97 334.68 49.13 337.55 33.57 C 338.61 31.46 339.32 28.89 341.37 27.50 M 348.68 55.54 C 347.75 58.49 346.83 61.45 345.93 64.41 C 364.77 71.24 382.39 81.43 397.68 94.39 C 420.19 113.38 437.57 138.36 447.58 166.05 C 450.55 165.15 453.50 164.22 456.46 163.28 C 454.03 154.03 449.18 145.68 444.89 137.22 C 426.40 103.46 396.58 76.09 361.44 60.48 C 357.36 58.43 353.16 56.50 348.68 55.54 M 341.19 79.69 C 327.48 123.72 313.84 167.79 300.15 211.84 C 344.20 198.14 388.26 184.49 432.30 170.78 C 417.15 129.03 382.94 94.84 341.19 79.69 Z" />
<path fill="white" opacity="1.00" d=" M 191.59 64.38 C 229.20 55.71 269.23 57.10 305.92 69.30 C 309.24 70.22 309.40 74.33 308.83 77.11 C 307.56 82.55 306.15 87.99 303.92 93.12 C 286.63 148.68 269.41 204.27 252.15 259.84 C 293.24 247.07 334.34 234.31 375.44 221.55 C 391.10 216.58 406.92 212.04 422.44 206.68 C 426.00 205.58 429.66 204.77 433.14 203.37 C 436.58 202.22 442.15 202.41 442.99 206.85 C 459.34 257.16 455.82 313.58 433.49 361.52 C 425.46 378.88 415.20 395.24 402.70 409.73 C 397.40 416.69 390.70 422.40 384.66 428.69 C 357.92 453.48 324.63 471.12 289.11 479.43 C 255.04 487.54 218.98 486.99 185.12 478.01 C 154.09 469.74 124.82 454.52 100.62 433.37 C 94.68 428.71 89.79 422.89 84.33 417.71 C 43.01 374.18 21.96 312.34 27.78 252.62 C 30.63 218.99 41.98 186.24 59.91 157.68 C 72.12 138.25 87.87 121.18 105.44 106.49 C 130.43 86.12 160.20 71.69 191.59 64.38 M 164.43 101.47 C 155.89 104.64 148.18 109.56 140.40 114.23 C 105.48 136.44 77.94 170.33 64.16 209.43 C 46.14 258.26 50.63 314.74 75.69 360.31 C 99.04 403.95 140.38 437.44 187.89 451.32 C 214.41 459.17 242.71 460.74 270.00 456.37 C 286.74 453.74 302.92 448.28 318.39 441.44 C 363.63 420.20 400.09 380.53 416.32 333.14 C 428.40 299.49 429.89 262.31 421.52 227.62 C 420.60 226.72 419.72 225.79 418.85 224.85 C 415.97 225.72 413.10 226.63 410.23 227.53 C 416.73 252.40 417.78 278.67 413.07 303.95 C 406.30 341.35 386.72 376.11 358.76 401.78 C 327.46 430.44 285.56 447.44 243.06 447.98 C 206.11 449.15 169.19 437.18 139.02 416.03 C 109.83 395.75 87.23 366.25 74.89 332.95 C 65.30 307.23 62.03 279.23 65.13 251.97 C 68.00 222.11 79.81 193.48 97.23 169.19 C 119.20 138.67 151.14 115.40 187.04 104.14 C 218.43 94.17 252.63 93.35 284.46 101.77 C 285.55 98.26 286.55 94.73 287.79 91.28 C 247.11 80.74 202.69 83.78 164.43 101.47 M 185.42 121.63 C 156.09 132.32 130.16 151.88 111.58 176.94 C 124.77 180.14 135.25 192.26 135.91 205.90 C 137.14 220.47 126.96 234.88 112.88 238.72 C 103.37 241.61 92.78 239.44 84.83 233.61 C 74.75 272.81 80.71 315.73 100.94 350.77 C 104.19 346.38 108.03 342.31 112.95 339.79 C 123.47 333.96 137.27 334.95 146.87 342.18 C 156.68 349.18 161.82 362.05 159.45 373.88 C 157.64 384.17 150.32 393.07 140.85 397.33 C 161.23 413.49 185.56 424.69 211.16 429.36 C 237.02 434.16 264.03 432.33 289.04 424.23 C 287.50 417.93 287.61 411.18 289.91 405.08 C 293.92 393.71 304.86 385.17 316.89 384.15 C 326.64 383.06 336.49 387.07 343.28 394.02 C 366.41 374.34 383.97 348.11 392.90 319.05 C 401.61 291.04 402.25 260.64 394.93 232.25 C 344.09 248.03 293.26 263.85 242.41 279.60 C 236.71 281.74 230.34 275.69 232.30 269.90 C 248.05 218.93 263.92 168.00 279.71 117.05 C 248.77 109.05 215.43 110.60 185.42 121.63 Z" />
<path fill="white" opacity="1.00" d=" M 361.43 112.67 C 376.52 109.16 393.08 118.47 398.07 133.09 C 403.55 147.23 397.09 164.54 383.82 171.79 C 371.10 179.38 353.38 176.35 343.87 165.00 C 333.75 153.87 333.40 135.52 343.04 123.98 C 347.62 118.24 354.23 114.16 361.43 112.67 Z" />
<path fill="white" opacity="1.00" d=" M 201.47 144.66 C 217.33 140.95 234.65 151.52 238.77 167.23 C 243.34 181.97 235.28 199.06 221.16 205.15 C 207.84 211.49 190.62 206.89 182.15 194.85 C 173.66 183.63 174.04 166.81 183.02 155.98 C 187.62 150.23 194.24 146.13 201.47 144.66 Z" />
<path fill="white" opacity="1.00" d=" M 327.22 178.17 C 334.48 176.56 341.34 184.65 338.35 191.54 C 336.05 198.43 325.97 200.25 321.46 194.53 C 316.32 189.15 319.85 179.19 327.22 178.17 Z" />
<path fill="white" opacity="1.00" d=" M 185.51 240.65 C 201.36 236.97 218.64 247.53 222.76 263.21 C 227.35 277.98 219.27 295.09 205.12 301.17 C 191.82 307.48 174.64 302.88 166.17 290.88 C 157.65 279.65 158.04 262.81 167.03 251.97 C 171.64 246.21 178.27 242.11 185.51 240.65 Z" />
<path fill="white" opacity="1.00" d=" M 329.45 272.65 C 344.55 269.18 361.05 278.47 366.08 293.07 C 371.46 307.01 365.32 324.03 352.40 331.45 C 339.85 339.33 322.09 336.64 312.33 325.52 C 302.58 315.17 301.22 298.16 309.26 286.42 C 313.84 279.42 321.26 274.35 329.45 272.65 Z" />
<path fill="white" opacity="1.00" d=" M 121.20 273.18 C 128.22 271.62 135.03 279.15 132.54 285.99 C 130.61 293.22 120.15 295.45 115.49 289.57 C 110.31 284.19 113.83 274.21 121.20 273.18 Z" />
<path fill="white" opacity="1.00" d=" M 269.16 293.19 C 276.40 291.52 283.31 299.56 280.38 306.47 C 278.12 313.38 268.04 315.27 263.50 309.57 C 258.32 304.22 261.80 294.25 269.16 293.19 Z" />
<path fill="white" opacity="1.00" d=" M 233.48 336.66 C 248.84 333.11 265.65 342.84 270.34 357.85 C 275.36 371.86 268.83 388.65 255.83 395.78 C 243.33 403.24 225.99 400.49 216.38 389.56 C 206.16 378.82 205.20 360.85 214.20 349.07 C 218.81 342.74 225.82 338.23 233.48 336.66 Z" />
</g>
</svg>
